<svg width="290" height="90" viewBox="0 0 290 90" fill="none" xmlns="http://www.w3.org/2000/svg">
<g filter="url(#filter0_d_106:1425)">
<rect x="20" y="20" width="250" height="50" rx="12" fill="#24A3FF"/>
</g>
<path d="M100.512 40.1973H98.4131V44.1211H94.2158V40.1973H92.1104V50H94.2158V46.0078H98.4131V50H100.512V40.1973ZM106.397 50H108.284V45.7275C108.284 44.9482 108.011 44.2988 107.464 43.7793C106.917 43.2598 106.206 43 105.345 43C105.01 43 104.682 43.0547 104.36 43.1504C104.046 43.2461 103.786 43.3555 103.588 43.4717C103.396 43.5879 103.212 43.7178 103.048 43.8682C102.884 44.0186 102.774 44.1279 102.727 44.1895C102.679 44.251 102.638 44.2988 102.61 44.333L103.656 45.3789L103.813 45.2148C103.923 45.0918 104.101 44.9756 104.354 44.8594C104.613 44.7432 104.894 44.6816 105.201 44.6816C105.577 44.6816 105.871 44.7773 106.076 44.9551C106.288 45.1396 106.391 45.3721 106.391 45.6592L104.217 46.0488C103.588 46.165 103.089 46.4111 102.727 46.7803C102.371 47.1562 102.187 47.6211 102.187 48.1816C102.187 48.7285 102.405 49.1865 102.829 49.5693C103.26 49.9521 103.813 50.1367 104.497 50.1367C104.853 50.1367 105.194 50.0615 105.522 49.9111C105.851 49.7607 106.069 49.6377 106.165 49.542C106.261 49.4463 106.336 49.3711 106.391 49.3027L106.397 50ZM104.989 48.5986C104.388 48.5986 104.08 48.3662 104.08 47.9014C104.08 47.4707 104.34 47.2109 104.853 47.1289L106.391 46.8486V47.0605C106.391 47.5459 106.268 47.9219 106.015 48.1953C105.762 48.4688 105.42 48.5986 104.989 48.5986ZM109.2 48.3184V51.6133H111.087V50H115.011V51.6133H116.897V48.3184H115.988V43.1367H110.738V45.0303C110.738 45.4609 110.697 45.8711 110.615 46.2607C110.533 46.6436 110.444 46.958 110.349 47.1904C110.253 47.4229 110.137 47.6416 110.007 47.8398C109.877 48.0312 109.788 48.1543 109.733 48.209C109.679 48.2568 109.645 48.2979 109.617 48.3252L109.2 48.3184ZM112.488 44.8252H114.102V48.3252H111.579L111.818 47.9629C111.969 47.7168 112.112 47.3408 112.263 46.8281C112.413 46.3154 112.488 45.7891 112.488 45.249V44.8252ZM120.124 43.1367H118.23V50H120.124V43.1367ZM120.261 41.1816C120.261 40.8672 120.158 40.6074 119.96 40.416C119.755 40.2246 119.481 40.1289 119.14 40.1289C118.825 40.1289 118.572 40.2246 118.381 40.416C118.189 40.6074 118.094 40.8672 118.094 41.1816C118.094 41.4961 118.183 41.749 118.374 41.9404C118.565 42.1318 118.818 42.2275 119.14 42.2275C119.481 42.2275 119.755 42.1318 119.96 41.9404C120.158 41.749 120.261 41.4961 120.261 41.1816ZM121.594 46.5684C121.594 47.5254 121.956 48.3594 122.694 49.0703C123.426 49.7812 124.294 50.1367 125.299 50.1367C125.654 50.1367 125.996 50.0889 126.317 49.9863C126.639 49.8838 126.898 49.7744 127.097 49.6514C127.302 49.5283 127.486 49.3916 127.657 49.2344C127.835 49.0771 127.944 48.9678 127.992 48.8994C128.04 48.8311 128.074 48.7832 128.102 48.7422L126.98 47.5527L126.796 47.7852C126.673 47.9355 126.468 48.0859 126.188 48.2363C125.907 48.3867 125.613 48.4619 125.299 48.4619C124.807 48.4619 124.383 48.2773 124.021 47.9082C123.665 47.5391 123.48 47.0947 123.48 46.5752C123.48 46.0557 123.665 45.6045 124.021 45.2354C124.376 44.8662 124.807 44.6816 125.299 44.6816C125.613 44.6816 125.907 44.7705 126.188 44.9346C126.468 45.0986 126.652 45.2354 126.734 45.3379C126.816 45.4473 126.878 45.5293 126.912 45.5908L128.102 44.4014L127.999 44.2578C127.931 44.1621 127.814 44.0391 127.65 43.9023C127.493 43.7656 127.309 43.6357 127.104 43.499C126.898 43.3623 126.639 43.2461 126.317 43.1504C125.996 43.0547 125.654 43 125.299 43C124.294 43 123.426 43.3623 122.688 44.0732C121.956 44.7842 121.594 45.6182 121.594 46.5684ZM130.07 43.1367V45.0303C130.07 45.9873 130.016 46.7119 129.92 47.2109C129.824 47.71 129.694 48.0312 129.537 48.1748C129.373 48.3184 129.154 48.3867 128.881 48.3867C128.744 48.3867 128.601 48.3662 128.464 48.3184V50L128.587 50.0547C128.662 50.082 128.778 50.1162 128.942 50.1572C129.106 50.1982 129.271 50.2119 129.441 50.2119C129.961 50.2119 130.392 50.082 130.733 49.8223C131.075 49.5625 131.349 49.0498 131.567 48.2979C131.786 47.5459 131.896 46.5273 131.896 45.249V44.8252H133.714V50.0068H135.601V43.1436L130.07 43.1367ZM141.206 50H143.093V45.7275C143.093 44.9482 142.819 44.2988 142.272 43.7793C141.726 43.2598 141.015 43 140.153 43C139.818 43 139.49 43.0547 139.169 43.1504C138.854 43.2461 138.595 43.3555 138.396 43.4717C138.205 43.5879 138.021 43.7178 137.856 43.8682C137.692 44.0186 137.583 44.1279 137.535 44.1895C137.487 44.251 137.446 44.2988 137.419 44.333L138.465 45.3789L138.622 45.2148C138.731 45.0918 138.909 44.9756 139.162 44.8594C139.422 44.7432 139.702 44.6816 140.01 44.6816C140.386 44.6816 140.68 44.7773 140.885 44.9551C141.097 45.1396 141.199 45.3721 141.199 45.6592L139.025 46.0488C138.396 46.165 137.897 46.4111 137.535 46.7803C137.18 47.1562 136.995 47.6211 136.995 48.1816C136.995 48.7285 137.214 49.1865 137.638 49.5693C138.068 49.9521 138.622 50.1367 139.306 50.1367C139.661 50.1367 140.003 50.0615 140.331 49.9111C140.659 49.7607 140.878 49.6377 140.974 49.542C141.069 49.4463 141.145 49.3711 141.199 49.3027L141.206 50ZM139.798 48.5986C139.196 48.5986 138.889 48.3662 138.889 47.9014C138.889 47.4707 139.148 47.2109 139.661 47.1289L141.199 46.8486V47.0605C141.199 47.5459 141.076 47.9219 140.823 48.1953C140.57 48.4688 140.229 48.5986 139.798 48.5986ZM144.214 44.9619H146.388V50H148.274V44.9619H150.448V43.1367H144.214V44.9619ZM156.423 43.1367L153.449 46.9922V43.1367H151.562V50H153.196L156.184 46.1514V50H158.07V43.1367H156.423ZM167.586 45.0303C167.586 44.4834 167.34 44.0049 166.854 43.6016C166.369 43.2051 165.727 43 164.927 43C164.592 43 164.271 43.041 163.956 43.123C163.642 43.2051 163.389 43.2939 163.204 43.3896C163.013 43.4854 162.842 43.6016 162.678 43.7314C162.514 43.8613 162.411 43.9502 162.363 44.0049C162.315 44.0596 162.281 44.0938 162.268 44.1211L163.32 45.167L163.498 45.0166C163.621 44.9072 163.799 44.7979 164.031 44.6953C164.264 44.5928 164.496 44.5381 164.722 44.5381C165.323 44.5449 165.631 44.7773 165.631 45.2422C165.631 45.4336 165.549 45.584 165.398 45.7002C165.248 45.8164 165.022 45.8711 164.722 45.8711H164.018V47.1289H164.722C165.46 47.1357 165.836 47.3682 165.836 47.833C165.836 48.0586 165.74 48.2432 165.549 48.3867C165.357 48.5303 165.084 48.5986 164.722 48.5986C164.407 48.5986 164.113 48.5303 163.833 48.3867C163.553 48.2432 163.368 48.127 163.286 48.0449C163.204 47.9629 163.143 47.8877 163.108 47.833L162.056 48.8789L162.172 49.0225C162.233 49.1045 162.343 49.207 162.507 49.3301C162.664 49.4531 162.849 49.5693 163.061 49.6924C163.279 49.8154 163.553 49.9248 163.881 50.0068C164.209 50.0957 164.558 50.1367 164.92 50.1367C165.856 50.1367 166.581 49.9453 167.094 49.5488C167.606 49.1523 167.859 48.6738 167.859 48.1133C167.859 47.8604 167.812 47.6279 167.709 47.4229C167.606 47.2178 167.497 47.0605 167.374 46.9443C167.251 46.8281 167.114 46.7256 166.95 46.6436C166.793 46.5615 166.684 46.5068 166.615 46.4795C166.554 46.459 166.506 46.4453 166.465 46.4385L166.574 46.3975C166.649 46.377 166.745 46.3291 166.861 46.2607C166.971 46.1924 167.087 46.1035 167.196 46.0078C167.306 45.9121 167.401 45.7754 167.477 45.6045C167.545 45.4268 167.586 45.2354 167.586 45.0303ZM173.048 50H174.935V45.7275C174.935 44.9482 174.661 44.2988 174.114 43.7793C173.567 43.2598 172.856 43 171.995 43C171.66 43 171.332 43.0547 171.011 43.1504C170.696 43.2461 170.437 43.3555 170.238 43.4717C170.047 43.5879 169.862 43.7178 169.698 43.8682C169.534 44.0186 169.425 44.1279 169.377 44.1895C169.329 44.251 169.288 44.2988 169.261 44.333L170.307 45.3789L170.464 45.2148C170.573 45.0918 170.751 44.9756 171.004 44.8594C171.264 44.7432 171.544 44.6816 171.852 44.6816C172.228 44.6816 172.521 44.7773 172.727 44.9551C172.938 45.1396 173.041 45.3721 173.041 45.6592L170.867 46.0488C170.238 46.165 169.739 46.4111 169.377 46.7803C169.021 47.1562 168.837 47.6211 168.837 48.1816C168.837 48.7285 169.056 49.1865 169.479 49.5693C169.91 49.9521 170.464 50.1367 171.147 50.1367C171.503 50.1367 171.845 50.0615 172.173 49.9111C172.501 49.7607 172.72 49.6377 172.815 49.542C172.911 49.4463 172.986 49.3711 173.041 49.3027L173.048 50ZM171.64 48.5986C171.038 48.5986 170.73 48.3662 170.73 47.9014C170.73 47.4707 170.99 47.2109 171.503 47.1289L173.041 46.8486V47.0605C173.041 47.5459 172.918 47.9219 172.665 48.1953C172.412 48.4688 172.07 48.5986 171.64 48.5986ZM178.646 44.8184H181.306V50H183.199V43.1367H176.76V50H178.646V44.8184ZM189.878 43.1367L186.904 46.9922V43.1367H185.018V50H186.651L189.639 46.1514V50H191.525V43.1367H189.878ZM192.64 44.9619H194.813V50H196.7V44.9619H198.874V43.1367H192.64V44.9619Z" fill="white"/>
<defs>
<filter id="filter0_d_106:1425" x="0" y="0" width="290" height="90" filterUnits="userSpaceOnUse" color-interpolation-filters="sRGB">
<feFlood flood-opacity="0" result="BackgroundImageFix"/>
<feColorMatrix in="SourceAlpha" type="matrix" values="0 0 0 0 0 0 0 0 0 0 0 0 0 0 0 0 0 0 127 0" result="hardAlpha"/>
<feOffset/>
<feGaussianBlur stdDeviation="10"/>
<feColorMatrix type="matrix" values="0 0 0 0 0.141667 0 0 0 0 0.6395 0 0 0 0 1 0 0 0 0.5 0"/>
<feBlend mode="normal" in2="BackgroundImageFix" result="effect1_dropShadow_106:1425"/>
<feBlend mode="normal" in="SourceGraphic" in2="effect1_dropShadow_106:1425" result="shape"/>
</filter>
</defs>
</svg>
